<svg width="122" height="21" viewBox="0 0 122 21" fill="none" xmlns="http://www.w3.org/2000/svg">
<rect width="121" height="21" fill="white"/>
<path d="M101.75 21L88.7773 0H114.722L101.75 21Z" fill="#8C19FF"/>
<path d="M101.865 12.7037L93.7821 0.103736L109.947 0.103735L101.865 12.7037Z" fill="#3FB984"/>
<path d="M101.865 4.82227L98.7714 4.39166e-05L104.958 4.34298e-05L101.865 4.82227Z" fill="white"/>
<path d="M7.83055 2.66H10.7105V16H7.83055V2.66Z" fill="#1D003B"/>
<path d="M12.7901 12.5V6.62H15.6701V11.86C15.6701 13.1133 16.1767 13.74 17.1901 13.74C17.7634 13.74 18.2167 13.5267 18.5501 13.1C18.8834 12.6733 19.0501 12.0933 19.0501 11.36V6.62H21.9301V16H19.3501L19.2101 14.72C18.9034 15.2133 18.4834 15.6 17.9501 15.88C17.4167 16.16 16.8234 16.3 16.1701 16.3C15.1167 16.3 14.2901 15.9667 13.6901 15.3C13.0901 14.62 12.7901 13.6867 12.7901 12.5Z" fill="#1D003B"/>
<path d="M24.0415 6.62H26.9215V16H24.0415V6.62ZM24.0015 2.74H26.9815V5.24H24.0015V2.74Z" fill="#1D003B"/>
<path d="M28.841 14L33.661 8.86H29.021V6.62H37.081V8.62L32.261 13.76H37.141V16H28.841V14Z" fill="#1D003B"/>
<path d="M38.3323 11.38C38.3323 10.3933 38.5389 9.52 38.9523 8.76C39.3656 8 39.9323 7.40667 40.6523 6.98C41.3856 6.54 42.2256 6.32 43.1723 6.32C44.1189 6.32 44.9456 6.54 45.6523 6.98C46.3589 7.40667 46.9123 8.01333 47.3123 8.8C47.7123 9.58667 47.9123 10.5 47.9123 11.54V12.18H41.1523C41.2589 12.7667 41.5323 13.2267 41.9723 13.56C42.4256 13.88 43.0189 14.04 43.7523 14.04C44.7656 14.04 45.6923 13.72 46.5323 13.08L47.6523 14.9C47.1723 15.34 46.5656 15.6867 45.8323 15.94C45.1123 16.18 44.3389 16.3 43.5123 16.3C42.4723 16.3 41.5589 16.1 40.7723 15.7C39.9989 15.3 39.3989 14.7333 38.9723 14C38.5456 13.2533 38.3323 12.38 38.3323 11.38ZM45.2323 10.44C45.1389 9.88 44.9189 9.44667 44.5723 9.14C44.2256 8.83333 43.7856 8.68 43.2523 8.68C42.6923 8.68 42.2256 8.84 41.8523 9.16C41.4923 9.46667 41.2656 9.89333 41.1723 10.44H45.2323Z" fill="#1D003B"/>
<path d="M49.5102 6.62H52.1502L52.2902 7.84C52.5836 7.37333 52.9969 7.00667 53.5302 6.74C54.0636 6.46 54.6636 6.32 55.3302 6.32C56.3969 6.32 57.2302 6.66 57.8302 7.34C58.4302 8.00667 58.7302 8.93333 58.7302 10.12V16H55.8502V10.72C55.8502 9.49333 55.3236 8.88 54.2702 8.88C53.6969 8.88 53.2369 9.08667 52.8902 9.5C52.5569 9.9 52.3902 10.4533 52.3902 11.16V16H49.5102V6.62Z" fill="#1D003B"/>
<path d="M67.2593 15.62V14.72C66.646 15.6267 65.706 16.08 64.4393 16.08C63.626 16.08 62.906 15.8933 62.2793 15.52C61.666 15.1333 61.186 14.5933 60.8393 13.9C60.506 13.2067 60.3393 12.4 60.3393 11.48C60.3393 10.4267 60.5726 9.51333 61.0393 8.74C61.506 7.96667 62.166 7.37333 63.0193 6.96C63.886 6.53333 64.906 6.32 66.0793 6.32C66.746 6.32 67.426 6.39333 68.1193 6.54C68.826 6.67333 69.466 6.86 70.0393 7.1V15.4C70.0393 17.0133 69.606 18.2333 68.7393 19.06C67.8726 19.8867 66.586 20.3 64.8793 20.3C63.2393 20.3 61.8726 19.9 60.7793 19.1L61.8793 17.12C62.7726 17.72 63.706 18.02 64.6793 18.02C66.3993 18.02 67.2593 17.22 67.2593 15.62ZM67.1593 11.6V8.96C66.706 8.85333 66.2926 8.8 65.9193 8.8C65.0926 8.8 64.4326 9.02667 63.9393 9.48C63.4593 9.93333 63.2193 10.5733 63.2193 11.4C63.2193 12.12 63.3993 12.6933 63.7593 13.12C64.1326 13.5467 64.626 13.76 65.2393 13.76C65.826 13.76 66.2926 13.5667 66.6393 13.18C66.986 12.78 67.1593 12.2533 67.1593 11.6Z" fill="#1D003B"/>
<path d="M71.726 11.6C71.726 10.56 71.9327 9.64667 72.346 8.86C72.7727 8.06 73.346 7.44 74.066 7C74.7994 6.54667 75.626 6.32 76.546 6.32C76.9327 6.32 77.286 6.36667 77.606 6.46C77.9394 6.54 78.2594 6.66667 78.566 6.84V2.66H81.446V16H78.826L78.686 14.86C78.3927 15.3133 77.9993 15.6667 77.506 15.92C77.026 16.1733 76.466 16.3 75.826 16.3C75.026 16.3 74.3127 16.1067 73.686 15.72C73.0727 15.32 72.5927 14.7667 72.246 14.06C71.8994 13.3533 71.726 12.5333 71.726 11.6ZM74.626 11.4C74.626 12.1467 74.806 12.74 75.166 13.18C75.526 13.6067 76.0127 13.82 76.626 13.82C77.2127 13.82 77.6793 13.62 78.026 13.22C78.386 12.82 78.566 12.2933 78.566 11.64V9.24C78.0727 8.94667 77.5527 8.8 77.006 8.8C76.2727 8.8 75.6927 9.03333 75.266 9.5C74.8393 9.95333 74.626 10.5867 74.626 11.4Z" fill="#1D003B"/>
<path d="M83.3323 11.38C83.3323 10.3933 83.5389 9.52 83.9523 8.76C84.3656 8 84.9323 7.40667 85.6523 6.98C86.3856 6.54 87.2256 6.32 88.1723 6.32C89.1189 6.32 89.9456 6.54 90.6523 6.98C91.3589 7.40667 91.9123 8.01333 92.3123 8.8C92.7123 9.58667 92.9123 10.5 92.9123 11.54V12.18H86.1523C86.2589 12.7667 86.5323 13.2267 86.9723 13.56C87.4256 13.88 88.0189 14.04 88.7523 14.04C89.7656 14.04 90.6923 13.72 91.5323 13.08L92.6523 14.9C92.1723 15.34 91.5656 15.6867 90.8323 15.94C90.1123 16.18 89.3389 16.3 88.5123 16.3C87.4723 16.3 86.5589 16.1 85.7723 15.7C84.9989 15.3 84.3989 14.7333 83.9723 14C83.5456 13.2533 83.3323 12.38 83.3323 11.38ZM90.2323 10.44C90.1389 9.88 89.9189 9.44667 89.5723 9.14C89.2256 8.83333 88.7856 8.68 88.2523 8.68C87.6923 8.68 87.2256 8.84 86.8523 9.16C86.4923 9.46667 86.2656 9.89333 86.1723 10.44H90.2323Z" fill="#1D003B"/>
<path d="M121.265 10.64C120.345 10.68 119.845 11.1933 119.765 12.18L119.505 15.42C119.451 16.0467 119.345 16.5467 119.185 16.92C119.038 17.2933 118.811 17.6 118.505 17.84H115.665C116.238 17.2667 116.565 16.4467 116.645 15.38L116.925 12.04C117.018 10.8533 117.558 10.1267 118.545 9.86C117.558 9.59333 117.018 8.86667 116.925 7.68L116.625 4.22C116.531 3.22 116.211 2.44 115.665 1.88H118.505C118.811 2.12 119.038 2.42667 119.185 2.8C119.345 3.17333 119.451 3.67333 119.505 4.3L119.765 7.54C119.845 8.52667 120.345 9.04 121.265 9.08V10.64Z" fill="#BC86F0"/>
<path d="M0 9.08C0.92 9.04 1.42 8.52667 1.5 7.54L1.78 4.3C1.83333 3.67333 1.93333 3.17333 2.08 2.8C2.24 2.42667 2.46667 2.12 2.76 1.88H5.62C5.06 2.44 4.74 3.22 4.66 4.22L4.36 7.68C4.25333 8.86667 3.71333 9.59333 2.74 9.86C3.71333 10.1267 4.25333 10.8533 4.36 12.04L4.62 15.38C4.7 16.4333 5.03333 17.2533 5.62 17.84H2.76C2.46667 17.6 2.24 17.2933 2.08 16.92C1.93333 16.5467 1.83333 16.0467 1.78 15.42L1.5 12.18C1.42 11.1933 0.92 10.68 0 10.64V9.08Z" fill="#BC86F0"/>
</svg>
